<svg width="771" height="729" viewBox="0 0 771 729" fill="none" xmlns="http://www.w3.org/2000/svg">
<mask id="path-1-inside-1_130_9764" fill="white">
<ellipse cx="394.903" cy="262.241" rx="278.951" ry="125.563" transform="rotate(-27.6342 394.903 262.241)"/>
</mask>
<path d="M646.494 130.522C643.52 132.078 640.547 133.635 637.573 135.192C647.12 153.099 644.631 175.385 637.156 194.941C602.716 273.965 526.37 328.162 450.807 369.02C450.807 369.02 450.807 369.02 450.807 369.02C402.568 394.164 351.218 413.972 297.735 423.823C246.847 432.055 179.976 437.685 150.003 390.458C126.87 339.23 168.844 285.608 204.281 247.614C242.517 208.261 288.127 176.525 336.664 151.002C336.664 151.002 336.664 151.002 336.664 151.002C336.664 151.002 336.664 151.002 336.664 151.002C413.875 111.869 503.328 80.6727 588.673 99.7355C609.156 105.294 628.924 116.805 637.573 135.192C640.547 133.635 643.52 132.078 646.494 130.522C634.642 109.179 611.829 98.2784 590.243 93.4851C500.996 78.3109 414.245 111.999 336.664 151.002C336.664 151.002 336.664 151.002 336.664 151.002C288.127 176.532 242.222 207.675 203.159 246.512C167.263 284.321 122.28 336.055 145.543 392.793C177.867 445.21 247.123 439.4 299.174 432.196C353.989 423.068 406.455 403.489 455.478 377.941C455.478 377.941 455.478 377.941 455.478 377.941C532.319 336.103 609.687 282.457 646.58 198.49C654.566 177.575 657.917 152.098 646.494 130.522ZM637.573 135.192L646.494 130.522L637.573 135.192Z" fill="#8DECC5" mask="url(#path-1-inside-1_130_9764)"/>
<path d="M249.841 142.685C373.957 51.2633 532.846 11.8031 604.728 54.548C676.61 97.2928 634.266 206.056 510.15 297.477C386.034 388.899 227.146 428.359 155.263 385.614C83.381 342.869 125.725 234.106 249.841 142.685ZM572.435 57.3779C510.726 20.6829 370.672 57.2496 259.615 139.052C148.558 220.854 108.553 316.915 170.261 353.61C231.97 390.305 372.024 353.738 483.081 271.936C594.138 190.134 634.143 94.0729 572.435 57.3779Z" fill="#209966"/>
<mask id="path-4-inside-2_130_9764" fill="white">
<ellipse cx="278.951" cy="125.563" rx="278.951" ry="125.563" transform="matrix(0.885927 0.463825 0.463825 -0.885927 89.5342 282.308)"/>
</mask>
<path d="M648.724 433.34C644.264 431.005 639.803 428.67 635.343 426.335C644.421 409.346 642.147 387.856 634.801 368.641C600.973 290.853 524.883 236.518 449.64 195.904C449.64 195.904 449.64 195.904 449.64 195.904C401.596 170.862 350.525 150.996 297.375 140.965C246.779 132.475 180.504 126.891 151.119 172.82C128.018 222.671 169.239 276.765 204.562 314.805C242.591 354.287 288.127 386.171 336.664 411.692C336.664 411.692 336.664 411.692 336.664 411.692C336.664 411.692 336.664 411.692 336.664 411.692C413.782 450.858 503.911 481.431 588.281 461.396C608.487 455.646 627.494 443.982 635.343 426.335C639.803 428.67 644.264 431.005 648.724 433.34C636.071 455.422 612.498 466.17 590.635 470.772C500.413 484.974 414.338 450.663 336.664 411.692C336.664 411.692 336.664 411.692 336.664 411.692C336.664 411.692 336.664 411.692 336.664 411.692C288.127 386.16 242.148 355.166 202.878 316.458C166.867 278.695 121.132 227.434 144.428 169.317C177.34 115.603 247.191 121.458 299.534 128.405C354.682 137.353 407.426 156.873 456.645 182.523C456.645 182.523 456.645 182.523 456.645 182.523C533.806 224.606 611.43 278.114 648.935 363.317C657.05 384.572 660.617 410.846 648.724 433.34ZM635.343 426.335L648.724 433.34L635.343 426.335Z" fill="#42CE93" mask="url(#path-4-inside-2_130_9764)"/>
<path d="M375.203 24.5108C377.249 22.4103 378.518 23.4115 379.887 25.6145C382.43 29.7082 386.769 54.1369 387.906 60.1246C392.718 87.7096 397.926 111.719 402.913 139.634C407.421 164.864 453.852 165.941 474.32 172.613C478.312 173.915 484.637 174.358 485.887 180.29C482.137 188.02 414.986 195.803 407.202 208.018C402.274 215.752 400.432 231.266 398.682 240.632L387.677 299.512C386.356 306.606 383.217 329.332 379.378 333.847C377.36 333.577 376.617 333.236 374.682 332.533C369.427 327.555 355.483 227.701 350.346 213.9C341.686 190.632 272.22 191.962 268.392 178.691C271.113 170.259 339.628 162.075 347.006 150.868C352.746 142.15 355.174 121.698 357.196 110.809L367.935 53.0531C369.261 45.9448 371.499 29.8373 375.203 24.5108Z" fill="#57FFB9"/>
<path d="M588.087 617.26H608.918V625.952H609.217C617.46 617.41 624.653 615.611 633.795 615.611C655.075 615.611 672.009 626.851 672.009 649.18C672.009 669.711 655.974 683.349 635.293 683.349C623.155 683.349 614.163 679.452 609.967 673.758H609.667V706.278H588.087V617.26ZM608.918 649.48C608.918 661.619 618.359 667.913 629.149 667.913C640.089 667.913 649.53 661.619 649.53 649.48C649.53 637.341 640.089 631.047 629.149 631.047C618.359 631.047 608.918 637.341 608.918 649.48Z" fill="white"/>
<path d="M500.416 649.183C500.416 625.055 517.8 614.864 543.876 614.864C569.952 614.864 587.336 625.055 587.336 649.183C587.336 673.16 569.952 683.351 543.876 683.351C517.8 683.351 500.416 673.16 500.416 649.183ZM522.745 649.183C522.745 661.621 530.538 668.515 543.876 668.515C557.214 668.515 565.006 661.621 565.006 649.183C565.006 636.594 557.214 629.701 543.876 629.701C530.538 629.701 522.745 636.594 522.745 649.183Z" fill="white"/>
<path d="M484.551 594.78V617.559H501.935V631.646H484.551V661.619C484.551 666.714 486.2 668.362 491.745 668.362C495.641 668.362 498.938 668.212 502.385 667.913V682.15C498.339 682.599 490.246 683.349 485.451 683.349C464.92 683.349 462.971 675.855 462.971 664.166V631.646H449.334V617.559H462.971V594.78H484.551Z" fill="white"/>
<path d="M391.365 617.26V629.698H391.665C399.457 619.957 405.602 615.611 417.89 615.611C420.438 615.611 423.285 615.761 425.833 616.211V635.843C421.787 634.794 417.89 633.894 413.844 633.894C399.158 633.894 392.114 641.088 392.114 653.526V680.951H370.534V617.26H391.365Z" fill="white"/>
<path d="M369.34 661.921C363.046 677.057 348.06 683.351 328.278 683.351C302.202 683.351 284.818 673.16 284.818 649.183C284.818 625.055 302.202 614.864 328.278 614.864C356.752 614.864 370.539 628.801 370.539 652.779V654.727H307.148V654.877C307.148 661.022 313.592 670.313 328.278 670.313C336.97 670.313 343.115 667.466 346.262 661.921H369.34ZM348.21 642.289V642.139C348.21 638.692 343.564 627.902 327.829 627.902C310.744 627.902 307.148 640.491 307.148 642.139V642.289H348.21Z" fill="white"/>
<path d="M207.906 617.262H232.484L250.317 661.92L268.3 617.262H292.878L262.606 680.953H238.178L207.906 617.262Z" fill="white"/>
<path d="M214.702 661.921C208.407 677.057 193.421 683.351 173.64 683.351C147.564 683.351 130.18 673.16 130.18 649.183C130.18 625.055 147.564 614.864 173.64 614.864C202.113 614.864 215.901 628.801 215.901 652.779V654.727H152.509V654.877C152.509 661.022 158.953 670.313 173.64 670.313C182.332 670.313 188.476 667.466 191.623 661.921H214.702ZM193.571 642.289V642.139C193.571 638.692 188.925 627.902 173.19 627.902C156.106 627.902 152.509 640.491 152.509 642.139V642.289H193.571Z" fill="white"/>
<path d="M703.27 681.391V718.483H669.343" stroke="#57FFB9" stroke-width="15.382"/>
<path d="M99.1221 614.14V577.047H133.049" stroke="#57FFB9" stroke-width="15.382"/>
</svg>
